<?xml version="1.0" standalone="no"?>
<!DOCTYPE svg PUBLIC "-//W3C//DTD SVG 20010904//EN"
 "http://www.w3.org/TR/2001/REC-SVG-20010904/DTD/svg10.dtd">
<svg version="1.0" xmlns="http://www.w3.org/2000/svg"
 width="1300.000000pt" height="1300.000000pt" viewBox="0 0 1300.000000 1300.000000"
 preserveAspectRatio="xMidYMid meet">
<metadata>
Created by potrace 1.11, written by Peter Selinger 2001-2013
</metadata>
<g transform="translate(0.000000,1300.000000) scale(0.100000,-0.100000)"
fill="#000000" stroke="none">
<path d="M5120 10103 c-36 -2 -102 -8 -148 -13 -58 -8 -94 -8 -123 0 -33 9
-51 8 -94 -6 -45 -14 -56 -22 -70 -53 -8 -20 -25 -51 -37 -70 -20 -31 -21 -38
-9 -90 7 -31 17 -74 22 -96 12 -58 67 -598 74 -740 3 -66 13 -219 21 -340 30
-442 33 -494 31 -705 l-2 -215 -172 -115 c-95 -63 -180 -123 -190 -132 -16
-17 -16 -17 13 -9 43 12 95 42 214 121 151 101 140 96 140 61 0 -22 -8 -35
-32 -52 -18 -12 -49 -37 -68 -54 -19 -18 -72 -56 -118 -85 -45 -29 -80 -55
-78 -58 3 -2 17 5 33 15 71 49 175 91 158 64 -10 -17 -159 -117 -245 -165 -47
-26 -137 -78 -200 -117 -63 -38 -207 -117 -320 -174 -133 -68 -220 -119 -248
-145 -32 -30 -50 -40 -76 -40 -44 0 -102 -39 -99 -68 2 -17 -19 -36 -103 -92
-58 -39 -125 -80 -149 -90 -24 -10 -46 -28 -50 -39 -9 -29 -56 -64 -69 -51
-15 15 -23 12 -29 -11 -4 -13 -12 -19 -24 -18 -10 2 -23 0 -30 -4 -7 -4 -18 2
-27 15 -9 12 -17 20 -20 17 -11 -12 -36 -86 -47 -139 -9 -49 -9 -63 2 -77 11
-14 11 -15 1 -9 -20 12 -1 -21 32 -57 15 -16 35 -45 45 -65 28 -53 78 -89 136
-96 27 -4 52 -9 57 -12 5 -3 19 1 32 9 29 20 207 74 268 82 41 5 156 38 353
99 28 8 67 18 87 21 29 4 39 12 44 29 3 13 16 28 30 35 13 6 24 17 24 25 0 21
34 37 88 41 33 3 79 21 153 60 59 30 129 62 155 70 47 14 94 20 94 11 0 -6
-183 -363 -228 -446 -51 -93 -174 -297 -257 -425 -66 -101 -130 -202 -149
-232 -18 -32 6 -7 56 55 126 155 343 514 521 862 96 188 121 230 138 230 28 0
-102 -260 -310 -620 -40 -69 -78 -132 -85 -140 -7 -8 -30 -46 -51 -85 -21 -38
-51 -88 -65 -110 -95 -142 -93 -165 3 -28 28 40 53 71 55 68 7 -7 -150 -245
-254 -382 -52 -71 -126 -168 -162 -217 -92 -122 -308 -391 -406 -506 -145
-169 -213 -254 -230 -287 -9 -17 -38 -51 -66 -75 -57 -49 -124 -133 -116 -146
9 -15 -226 -277 -285 -318 -20 -14 -59 -52 -85 -85 -32 -41 -58 -62 -77 -66
-15 -3 -35 -16 -44 -29 -8 -13 -23 -24 -32 -24 -9 0 -27 -8 -41 -17 -17 -12
-25 -13 -28 -5 -2 7 -9 12 -17 12 -15 0 -79 -76 -97 -116 -7 -16 -18 -35 -25
-42 -7 -7 -13 -19 -13 -27 0 -14 65 -75 80 -75 5 0 17 -14 25 -30 15 -30 36
-42 92 -56 15 -4 24 -3 20 2 -3 5 6 9 20 8 38 -1 102 34 163 90 67 62 213 185
289 244 61 48 189 162 316 282 44 42 108 100 142 129 34 28 65 62 69 74 4 12
18 36 33 53 14 17 33 45 42 61 9 17 46 55 81 84 36 30 112 108 170 174 93 106
203 218 278 281 33 28 215 233 318 358 45 56 106 129 135 164 59 72 83 104
257 344 69 95 136 190 149 211 12 20 25 37 28 37 16 0 -25 -625 -57 -885 -11
-88 -20 -216 -20 -284 0 -110 -3 -130 -24 -175 -16 -33 -26 -80 -31 -134 -7
-79 -6 -84 14 -89 24 -6 24 -9 11 -66 -5 -23 -26 -115 -45 -205 -41 -183 -54
-220 -97 -275 -25 -32 -32 -51 -38 -115 -13 -123 -24 -140 -103 -157 -23 -5
-26 -9 -21 -29 7 -30 -26 -66 -61 -66 -24 0 -58 -25 -67 -50 -3 -9 -18 -9 -66
0 -59 10 -100 3 -103 -18 -2 -21 -9 -61 -14 -87 -5 -22 0 -39 18 -66 13 -19
27 -48 31 -63 4 -18 18 -32 39 -41 44 -18 224 -43 397 -55 85 -6 178 -19 225
-31 64 -17 115 -22 260 -24 100 -2 187 1 197 6 10 5 25 23 34 40 11 23 19 28
27 20 20 -20 37 -12 37 18 0 28 22 61 40 61 19 0 21 42 3 68 -16 24 -18 47
-16 225 2 152 8 220 23 294 23 112 25 144 8 162 -10 11 -10 13 0 7 7 -5 12 -1
12 11 0 10 5 79 10 153 5 74 14 200 19 280 6 80 16 177 22 217 12 69 12 75
-10 119 -16 32 -22 56 -18 79 3 19 -1 44 -9 60 -17 34 -18 139 -2 168 8 14 15
84 18 192 l5 169 63 -87 c62 -84 123 -147 142 -147 5 0 12 -11 16 -24 6 -26
50 -53 56 -35 4 12 128 -78 128 -92 0 -6 16 -17 35 -25 23 -9 35 -21 35 -33 0
-11 4 -21 10 -23 12 -4 16 -46 6 -75 -6 -20 -4 -23 19 -23 46 0 82 26 99 72
97 268 117 332 112 368 -2 14 -4 31 -5 38 0 6 -9 12 -18 12 -10 0 -30 8 -45
18 -30 20 -141 148 -151 175 -4 10 -11 16 -16 13 -16 -10 -61 13 -61 30 0 9
-16 34 -35 55 -19 21 -37 51 -40 66 -4 16 -11 35 -16 43 -5 8 -17 28 -27 44
-18 30 -122 194 -179 283 -18 28 -36 60 -40 70 -4 10 -19 34 -34 53 l-27 35
-6 497 c-7 488 -6 498 14 538 11 22 27 40 35 40 9 0 26 23 39 54 27 60 62 92
267 242 240 176 277 199 292 185 12 -9 33 0 113 52 124 80 184 143 184 191 0
19 -15 72 -33 119 -34 89 -77 148 -272 374 -49 57 -100 122 -113 143 -31 52
-98 106 -142 113 -19 3 -43 8 -52 12 -13 5 -34 -8 -75 -48 -32 -30 -103 -90
-158 -132 -93 -71 -100 -75 -104 -53 -5 35 19 770 26 781 4 6 1 7 -6 2 -10 -6
-11 -3 -2 13 6 11 11 34 11 50 0 16 9 37 20 47 13 12 20 31 20 54 0 20 9 122
20 226 37 360 23 439 -87 490 -21 10 -51 27 -68 39 -27 19 -44 21 -175 21 -80
0 -174 -1 -210 -2z m-280 -1688 c6 -104 15 -230 20 -280 5 -49 9 -137 9 -195
1 -93 -1 -107 -18 -117 -17 -10 -20 -9 -24 15 -3 15 -6 110 -6 212 -1 102 -3
298 -5 435 -5 278 5 248 24 -70z m30 -665 c0 -19 -7 -33 -20 -40 -18 -10 -20
-8 -20 18 0 27 15 52 32 52 4 0 8 -13 8 -30z m-1515 -1469 c8 -14 -31 -33 -58
-29 -21 3 -20 5 8 20 35 20 42 21 50 9z m-334 -18 c13 -16 12 -17 -3 -4 -10 7
-18 15 -18 17 0 8 8 3 21 -13z m69 -3 c0 -5 -7 -10 -16 -10 -8 0 -12 5 -9 10
3 6 10 10 16 10 5 0 9 -4 9 -10z m50 -65 c17 9 43 15 58 13 25 -3 24 -4 -19
-25 -25 -13 -50 -23 -55 -23 -6 0 -26 17 -45 37 -32 35 -32 36 -3 10 31 -28
32 -28 64 -12z m2290 -779 c0 -2 -8 -10 -17 -17 -16 -13 -17 -12 -4 4 13 16
21 21 21 13z m738 -335 c3 -8 -1 -12 -9 -9 -7 2 -15 10 -17 17 -3 8 1 12 9 9
7 -2 15 -10 17 -17z m82 -22 c0 -4 -3 -15 -6 -24 -6 -15 -8 -14 -25 1 -10 9
-17 20 -14 23 5 9 45 9 45 0z m-50 -124 c0 -8 -4 -15 -10 -15 -5 0 -7 7 -4 15
4 8 8 15 10 15 2 0 4 -7 4 -15z m-3490 -1423 c0 -10 -82 -73 -88 -68 -4 5 70
75 81 76 4 0 7 -4 7 -8z m2546 -98 c-3 -24 -14 -61 -25 -82 -16 -31 -20 -34
-27 -19 -7 20 1 141 11 157 4 6 14 6 27 -1 17 -9 20 -17 14 -55z m-2856 -64
c0 -5 -9 -14 -20 -20 -22 -12 -27 -1 -8 18 14 14 28 16 28 2z m89 -40 c-52
-47 -85 -64 -77 -37 6 17 100 87 117 87 8 0 -10 -22 -40 -50z m41 -35 c-7 -9
-15 -13 -17 -11 -7 7 7 26 19 26 6 0 6 -6 -2 -15z m2712 -125 c-6 -40 -5 -103
3 -136 6 -29 5 -32 -24 -37 -48 -10 -81 7 -81 41 0 41 18 91 47 130 29 39 60
40 55 2z m188 -101 c0 -11 -4 -19 -9 -19 -16 0 -33 30 -27 46 5 13 9 14 21 4
8 -7 15 -21 15 -31z m-504 17 c25 -19 8 -37 -37 -39 -25 -2 -34 3 -37 17 -7
34 39 47 74 22z"/>
<path d="M7814 9967 c-8 -23 14 -67 40 -77 18 -7 23 -14 19 -29 -6 -25 -16
-26 -46 -7 -52 33 -137 27 -137 -10 0 -6 -8 -11 -17 -10 -10 0 -26 -15 -40
-41 -13 -23 -33 -45 -43 -48 -11 -4 -20 -13 -20 -21 0 -8 -7 -14 -15 -14 -8 0
-15 -5 -15 -10 0 -14 -72 -86 -83 -82 -5 1 -6 -2 -2 -8 7 -12 -44 -76 -57 -72
-5 1 -7 -2 -3 -7 3 -6 1 -18 -5 -28 -5 -10 -16 -36 -24 -58 -7 -22 -17 -48
-21 -58 -6 -14 -2 -20 14 -24 11 -3 18 -10 14 -16 -4 -6 -1 -7 6 -2 7 4 22 -1
34 -13 12 -10 64 -47 115 -82 50 -35 92 -67 92 -71 0 -5 15 -12 33 -17 22 -6
33 -15 35 -30 4 -27 39 -30 58 -4 13 16 13 16 15 -3 1 -11 1 -27 0 -35 -2 -13
0 -13 8 -1 5 8 7 21 4 30 -3 11 1 10 14 -5 10 -11 31 -24 45 -27 15 -4 33 -17
39 -29 7 -13 17 -28 23 -34 6 -7 22 -27 36 -45 14 -18 38 -45 53 -61 16 -15
30 -38 31 -50 2 -13 6 -30 9 -38 17 -48 15 -62 -15 -91 -17 -16 -38 -29 -47
-29 -14 0 -14 2 -1 11 12 9 10 10 -9 6 -15 -4 -31 1 -44 14 -15 14 -23 16 -26
7 -2 -6 1 -14 8 -16 6 -2 17 -10 25 -17 7 -8 16 -12 19 -9 2 3 7 -2 10 -10 4
-10 1 -13 -9 -9 -11 4 -14 -5 -14 -45 l0 -51 -42 -4 c-26 -2 -6 -5 47 -7 51
-2 70 -5 45 -7 -25 -1 -65 -6 -90 -9 l-45 -6 50 -13 c115 -30 126 -29 168 10
27 26 43 35 57 30 26 -8 25 -17 -5 -45 -14 -13 -25 -26 -25 -30 0 -3 41 -12
91 -20 70 -10 96 -10 110 -2 22 14 108 16 142 3 35 -14 86 -66 103 -106 33
-80 2 -174 -74 -225 -25 -16 -53 -30 -62 -30 -21 0 -42 -75 -29 -104 8 -20 9
-20 7 -1 0 11 2 27 5 35 3 8 8 24 10 35 3 11 3 2 1 -20 -2 -36 -1 -38 11 -22
7 11 11 26 8 34 -6 15 20 43 38 43 13 0 0 -42 -18 -61 -40 -41 -43 -49 -42
-121 l2 -73 7 73 6 73 76 77 76 77 -2 105 c-1 58 -4 111 -6 119 -3 8 2 16 11
18 10 3 44 -22 85 -61 57 -55 73 -65 108 -68 23 -2 42 0 44 5 7 22 0 37 -18
37 -11 0 -20 6 -21 13 0 6 -28 30 -62 53 -101 66 -87 93 29 54 32 -11 65 -18
73 -15 9 3 12 3 8 -1 -8 -9 23 -33 43 -34 9 0 2 12 -18 29 -17 17 -28 32 -24
35 5 3 19 -8 32 -25 14 -16 32 -29 40 -29 12 0 12 -2 2 -9 -10 -6 -10 -10 3
-21 13 -10 15 -9 15 8 0 19 -55 82 -72 82 -17 0 -25 4 -66 32 -23 16 -46 27
-50 24 -4 -2 -9 9 -10 25 -2 21 2 29 13 29 12 0 9 6 -9 24 -29 26 -32 36 -12
36 8 0 16 6 19 13 3 7 28 -11 65 -47 41 -40 70 -60 89 -62 15 -1 44 -5 63 -8
l35 -6 -35 13 c-25 10 -31 16 -20 20 10 5 8 6 -5 4 -11 -2 -29 5 -40 15 -20
19 -20 19 5 15 14 -2 33 -7 42 -11 9 -4 27 -6 40 -3 20 4 20 4 -5 6 -16 0 -26
5 -22 11 3 6 -2 10 -12 10 -11 0 -23 4 -29 10 -5 5 -31 10 -57 11 -61 3 -81
23 -47 49 13 10 29 16 35 14 6 -3 28 2 50 10 29 11 34 15 18 15 -13 1 -23 6
-23 12 0 6 9 9 20 6 11 -3 23 -1 26 4 3 5 -6 9 -19 9 -20 0 -23 4 -19 25 3 19
0 25 -12 25 -10 0 -15 4 -11 9 3 5 2 12 -3 15 -14 9 -36 -12 -48 -46 -7 -22
-17 -33 -30 -33 -16 0 -19 8 -20 50 -1 28 4 61 10 74 8 19 8 25 -2 29 -6 2
-12 12 -12 22 0 10 -10 20 -22 23 -17 5 -19 9 -9 20 9 12 6 14 -19 11 -28 -3
-33 0 -50 39 -10 23 -19 38 -20 32 0 -5 -15 15 -33 45 -18 31 -40 67 -50 80
-10 14 -38 57 -63 95 -25 39 -61 89 -80 111 -18 23 -30 45 -26 49 4 5 2 5 -5
2 -7 -4 -34 23 -69 70 -32 42 -75 92 -96 111 -38 34 -43 61 -9 43 18 -10 64
-11 55 -1 -3 3 -11 5 -17 5 -7 1 -11 7 -9 14 1 7 -2 10 -8 6 -5 -3 -10 -2 -10
3 0 22 -50 62 -79 62 -16 0 -32 4 -36 10 -3 5 -12 7 -19 4 -15 -6 -166 151
-166 172 0 13 -46 54 -62 54 -5 0 -11 -6 -14 -13z m889 -1031 c18 -14 24 -32
7 -21 -5 3 -10 0 -11 -7 0 -7 -4 -4 -9 7 -7 16 -9 13 -9 -15 -1 -20 4 -41 11
-48 10 -9 9 -16 -3 -28 -14 -13 -16 -13 -15 5 1 11 -3 20 -9 21 -9 0 -32 50
-34 73 -1 7 34 25 49 26 3 0 13 -6 23 -13z m7 -157 c0 8 2 12 5 9 3 -3 2 -13
-1 -22 -5 -14 -9 -15 -15 -4 -5 7 -9 18 -9 23 0 6 5 3 10 -5 8 -12 10 -12 10
-1z m105 -68 c-6 -5 -25 10 -25 20 0 5 6 4 14 -3 8 -7 12 -15 11 -17z m-815
-15 c0 -2 -7 -7 -16 -10 -8 -3 -12 -2 -9 4 6 10 25 14 25 6z m14 -42 c3 -8 2
-12 -4 -9 -6 3 -10 10 -10 16 0 14 7 11 14 -7z m42 -46 c4 -7 4 -10 -1 -6 -4
4 -15 2 -24 -5 -14 -11 -14 -10 -2 6 16 20 18 21 27 5z m-63 -15 c-7 -2 -19
-2 -25 0 -7 3 -2 5 12 5 14 0 19 -2 13 -5z m855 -23 c8 0 13 -3 9 -6 -10 -10
-48 7 -40 19 5 8 8 8 11 -1 2 -7 11 -12 20 -12z m-931 -16 c-3 -3 -12 -4 -19
-1 -8 3 -5 6 6 6 11 1 17 -2 13 -5z m850 -240 c-3 -3 -12 -4 -19 -1 -8 3 -5 6
6 6 11 1 17 -2 13 -5z m-256 -155 c-12 -13 -21 -19 -21 -14 0 11 32 46 38 41
2 -3 -5 -15 -17 -27z"/>
<path d="M8331 9458 c-1 -10 3 -18 8 -18 5 0 15 8 22 18 13 15 12 16 -3 4 -13
-10 -17 -10 -21 0 -4 8 -6 7 -6 -4z"/>
<path d="M6615 9336 c-74 -37 -118 -78 -168 -154 -25 -37 -68 -91 -96 -120
-55 -58 -75 -89 -85 -139 -8 -36 4 -49 34 -33 18 10 19 9 10 -15 -14 -38 -13
-42 15 -49 13 -3 29 -15 35 -26 8 -15 17 -19 37 -14 23 6 25 5 18 -16 -6 -18
-4 -22 8 -17 9 3 18 -1 21 -9 7 -18 30 -18 46 1 9 10 17 12 30 5 13 -7 21 -6
29 4 7 8 20 12 30 9 10 -3 22 1 26 8 5 7 4 10 -3 5 -6 -3 -3 8 5 26 9 18 18
27 21 20 3 -9 8 -8 18 5 7 10 14 13 14 7 0 -5 -7 -19 -15 -30 -16 -21 -20 -48
-6 -40 5 3 3 -11 -4 -32 -12 -34 -12 -37 7 -42 20 -5 20 -5 -1 -32 -21 -26
-29 -68 -13 -68 10 0 71 -87 98 -140 25 -49 60 -156 94 -287 32 -127 63 -192
101 -210 14 -7 31 -23 38 -35 19 -32 75 -78 109 -87 22 -7 51 -2 114 18 107
35 204 99 225 150 8 20 25 47 38 61 13 14 34 45 47 70 22 42 23 55 22 215 -2
154 -5 180 -32 280 -62 230 -158 392 -302 508 -158 127 -326 207 -463 223 -43
4 -60 1 -102 -20z"/>
<path d="M10014 9235 c-43 -30 -144 -117 -223 -193 -80 -75 -152 -137 -160
-137 -9 0 -16 -7 -16 -15 0 -18 -63 -90 -79 -90 -6 0 -25 -12 -41 -27 -16 -16
-33 -27 -38 -25 -5 1 -5 -2 -2 -8 4 -6 0 -19 -9 -29 -12 -13 -14 -30 -8 -81 7
-65 7 -65 55 -91 26 -14 44 -29 40 -33 -4 -4 -1 -4 8 -1 9 3 30 -7 51 -27 l36
-32 -20 -40 c-28 -55 -144 -197 -153 -188 -5 4 -5 2 -2 -4 8 -14 -26 -47 -38
-37 -4 5 -5 2 -1 -5 10 -16 -32 -64 -47 -55 -6 3 -7 1 -3 -5 9 -15 -91 -115
-106 -106 -6 4 -8 3 -5 -3 8 -13 -67 -86 -77 -76 -4 5 -6 3 -5 -2 2 -6 -3 -20
-10 -33 -12 -23 -12 -23 11 -11 13 7 27 12 31 11 5 -1 6 2 3 7 -6 9 22 26 36
23 5 -1 7 1 6 6 -2 4 39 50 91 102 51 52 116 121 143 152 28 32 54 55 59 52 5
-3 6 1 3 9 -3 8 20 42 55 80 33 36 65 76 71 87 6 12 13 20 16 18 20 -20 -214
-326 -239 -311 -5 3 -7 2 -4 -4 3 -5 -5 -22 -19 -39 -70 -80 -129 -144 -136
-144 -11 0 -77 -74 -72 -79 2 -3 19 9 37 26 17 16 50 43 72 58 33 24 29 17
-25 -38 -35 -37 -71 -66 -79 -64 -9 1 -16 -3 -16 -10 0 -25 -229 -208 -246
-197 -7 4 -9 3 -5 -4 9 -15 -99 -96 -115 -86 -8 4 -9 3 -5 -4 4 -7 -11 -22
-36 -38 -24 -15 -55 -36 -70 -46 -16 -10 -28 -14 -28 -9 0 5 10 17 22 25 12 9
17 16 10 16 -6 0 -26 -14 -44 -30 -24 -22 -28 -29 -13 -24 11 3 -5 -10 -35
-29 -30 -19 -70 -47 -89 -61 -19 -14 -51 -31 -72 -36 -21 -6 -51 -24 -68 -40
-20 -20 -35 -28 -48 -24 -13 4 -14 3 -5 -3 9 -7 -10 -20 -68 -47 -44 -20 -95
-39 -113 -43 -18 -3 -48 -14 -68 -24 -41 -20 -85 -19 -121 4 -12 8 -68 38
-123 67 -55 29 -117 62 -138 73 -32 16 -46 18 -89 11 l-52 -9 -11 -50 c-6 -27
-35 -106 -64 -175 -29 -69 -82 -198 -118 -287 -63 -159 -65 -163 -94 -163 -16
0 -68 -14 -117 -31 -183 -65 -262 -84 -527 -125 -112 -17 -259 -54 -278 -71
-21 -18 -21 -18 -7 1 14 17 13 18 -5 13 -11 -3 -60 -11 -110 -18 -113 -14
-245 -45 -259 -60 -17 -18 145 -4 231 21 76 21 123 26 123 12 0 -5 -15 -19
-32 -32 -18 -13 -27 -17 -20 -8 12 15 9 15 -40 4 -162 -40 -294 -80 -301 -92
-4 -8 -16 -14 -25 -15 -14 0 -13 -2 3 -9 19 -8 19 -9 -3 -9 -27 -1 -62 -18
-62 -30 0 -4 12 -14 28 -21 l27 -12 -33 -16 c-19 -9 -31 -21 -28 -29 3 -7 1
-13 -5 -13 -6 0 -8 -8 -4 -19 3 -10 -1 -23 -9 -31 -18 -14 -11 -97 10 -119 12
-13 16 -12 36 4 13 11 17 13 11 5 -19 -21 -16 -26 27 -40 22 -7 40 -17 40 -22
0 -5 12 -13 27 -19 28 -10 80 -6 643 51 254 26 460 41 460 34 0 -22 -223 -473
-231 -468 -9 5 -13 -10 -10 -30 1 -5 -7 -27 -17 -50 -11 -22 -25 -59 -32 -81
-7 -22 -21 -51 -31 -65 -10 -14 -20 -41 -23 -60 -4 -37 -25 -93 -82 -225 -57
-131 -62 -139 -109 -164 -24 -13 -51 -31 -60 -41 -14 -15 -14 -19 5 -43 11
-14 20 -29 20 -34 0 -5 10 -19 23 -31 19 -18 31 -20 82 -16 33 3 87 12 120 20
85 22 448 30 585 14 58 -7 140 -12 183 -11 55 2 95 -3 140 -18 34 -11 100 -27
146 -36 93 -19 135 -32 223 -72 l59 -26 -68 -69 c-178 -182 -379 -312 -678
-442 -173 -75 -196 -84 -258 -96 -33 -7 -68 -21 -78 -31 -19 -19 -277 -89
-331 -89 -12 0 -54 -9 -93 -19 -77 -20 -203 -20 -216 0 -18 29 -189 -33 -189
-69 1 -9 7 -28 14 -41 7 -13 11 -32 9 -42 -3 -9 5 -31 17 -47 32 -44 114 -58
252 -43 56 6 173 15 258 21 85 6 244 21 353 35 165 20 203 28 230 47 17 13 40
21 50 20 10 -2 24 3 30 11 12 15 89 37 127 37 26 0 105 31 295 115 77 34 158
68 179 75 81 26 302 181 453 317 50 46 95 83 99 83 15 0 207 -135 288 -204 90
-76 253 -243 329 -337 102 -129 212 -330 210 -388 -1 -41 21 -171 43 -248 17
-62 32 -72 122 -83 53 -7 91 -3 212 20 81 16 171 35 200 44 30 9 71 16 91 16
59 0 89 19 110 68 11 24 19 54 19 67 0 13 -22 69 -50 124 -27 55 -50 103 -50
107 0 11 -113 210 -162 284 -109 166 -357 431 -538 575 -114 91 -305 215 -421
275 -57 29 -106 54 -108 56 -2 1 10 22 27 46 34 49 152 246 152 254 0 3 14 25
31 50 16 24 45 84 63 132 18 48 65 170 104 272 38 102 91 253 117 335 34 108
54 156 71 170 13 11 30 42 38 69 17 56 28 66 74 66 25 0 41 -9 65 -34 40 -42
57 -48 82 -27 18 14 18 14 7 0 -11 -14 -5 -17 50 -23 127 -13 384 4 518 34 69
16 140 31 157 35 18 4 39 15 45 24 7 10 29 22 48 26 19 4 51 18 70 31 20 14
49 24 69 24 77 0 168 70 157 120 -4 14 -9 126 -12 250 -2 124 -7 230 -9 237
-2 7 -20 15 -39 19 -26 4 -36 11 -36 25 0 10 5 21 10 24 27 17 6 34 -61 50
-58 13 -74 13 -87 3 -12 -10 -14 -10 -8 -1 5 9 -1 11 -22 7 -45 -9 -59 16 -38
68 12 33 13 44 3 50 -6 5 -64 7 -127 5 -95 -3 -136 -10 -238 -40 -192 -57
-370 -82 -366 -52 1 6 4 19 8 30 9 31 -8 49 -39 41 -27 -7 -27 -7 -9 -29 10
-12 12 -17 5 -10 -10 8 -23 7 -55 -8 -22 -10 -63 -19 -89 -19 -26 0 -60 -6
-75 -14 -26 -13 -327 -63 -557 -91 -60 -7 -175 -23 -255 -34 -80 -11 -230 -32
-335 -46 -104 -14 -219 -30 -255 -35 -35 -5 -66 -7 -69 -5 -7 8 40 54 58 57
24 4 148 145 162 182 11 30 17 32 158 68 237 61 264 69 298 95 18 14 39 23 47
20 9 -4 13 -1 10 7 -5 13 35 36 65 36 10 0 90 36 177 80 87 44 166 80 175 80
9 0 37 11 62 24 25 14 48 23 51 20 3 -2 4 -1 1 3 -6 8 11 20 100 68 39 21 95
54 125 75 31 20 62 39 70 43 8 4 49 31 90 62 41 30 95 69 120 87 68 48 198
154 265 217 33 31 75 68 92 83 45 39 181 224 336 461 74 111 137 208 141 214
8 14 -20 53 -137 187 -61 70 -77 94 -73 112 4 16 -7 38 -42 82 -26 33 -67 86
-92 118 -43 55 -172 174 -188 174 -5 0 -44 -25 -88 -55z m-193 -2442 c13 -16
12 -17 -3 -4 -10 7 -18 15 -18 17 0 8 8 3 21 -13z m-2398 -94 c-19 -46 -42
-91 -51 -99 -18 -18 -19 -21 29 90 30 73 48 104 55 97 2 -2 -13 -41 -33 -88z
m1132 -748 c-16 -143 -59 -395 -80 -481 -56 -219 -191 -560 -273 -688 -7 -10
-25 -9 -93 7 -46 10 -156 31 -244 46 -139 24 -187 28 -365 28 -136 -1 -244 -6
-320 -17 -63 -9 -153 -21 -200 -26 -47 -5 -111 -16 -142 -24 -32 -8 -60 -10
-63 -5 -3 4 43 81 102 171 131 196 117 174 139 228 10 25 29 59 44 75 15 17
46 62 70 100 24 39 64 94 88 122 47 57 106 138 225 309 78 114 89 124 135 124
34 0 59 15 43 24 -26 16 -6 24 77 30 166 13 207 17 257 24 28 4 175 8 328 8
l279 1 -7 -56z m-1250 -231 c10 -11 16 -20 13 -20 -3 0 -13 9 -23 20 -10 11
-16 20 -13 20 3 0 13 -9 23 -20z m1271 -69 c-3 -27 -16 -84 -27 -127 -12 -44
-25 -107 -30 -141 -12 -82 -85 -277 -169 -448 -77 -155 -99 -188 -118 -177 -9
6 -1 28 33 87 94 165 219 496 271 715 30 127 34 140 41 140 3 0 3 -22 -1 -49z
m-1716 -981 c-8 -5 -28 -9 -45 -9 -30 2 -30 2 5 9 51 11 57 11 40 0z m-153
-36 c-3 -3 -12 -4 -19 -1 -8 3 -5 6 6 6 11 1 17 -2 13 -5z m2181 -73 c103 -52
270 -159 389 -247 113 -84 351 -310 428 -407 69 -86 31 -58 -61 45 -49 55
-105 112 -124 127 -19 14 -80 64 -135 111 -169 144 -402 301 -523 351 -34 14
-49 26 -45 35 7 18 4 19 71 -15z m-1498 -925 c0 -2 -8 -10 -17 -17 -16 -13
-17 -12 -4 4 13 16 21 21 21 13z m-1090 -60 c0 -11 -19 -15 -25 -6 -3 5 1 10
9 10 9 0 16 -2 16 -4z m275 -36 c-3 -5 -27 -9 -53 -9 -46 2 -46 2 -12 9 53 11
72 11 65 0z m-195 -19 c19 -6 12 -9 -33 -12 -65 -5 -86 -1 -66 12 16 10 64 10
99 0z m-23 -47 c-3 -3 -12 -4 -19 -1 -8 3 -5 6 6 6 11 1 17 -2 13 -5z"/>
<path d="M8163 5948 c-13 -6 -23 -15 -23 -20 0 -11 112 -10 130 2 38 25 -60
41 -107 18z"/>
<path d="M7363 4913 c9 -2 23 -2 30 0 6 3 -1 5 -18 5 -16 0 -22 -2 -12 -5z"/>
<path d="M7497 4913 c18 -2 50 -2 70 0 21 2 7 4 -32 4 -38 0 -55 -2 -38 -4z"/>
<path d="M7748 4863 c6 -2 18 -2 25 0 6 3 1 5 -13 5 -14 0 -19 -2 -12 -5z"/>
<path d="M8583 9125 c6 -19 14 -35 19 -35 11 0 10 13 -2 44 -15 40 -30 32 -17
-9z"/>
<path d="M8702 9025 c0 -16 2 -22 5 -12 2 9 2 23 0 30 -3 6 -5 -1 -5 -18z"/>
<path d="M7810 9006 c0 -15 24 -28 34 -19 13 14 5 33 -14 33 -11 0 -20 -6 -20
-14z"/>
<path d="M8730 8978 c0 -3 7 -19 15 -34 8 -16 15 -22 15 -14 -1 8 -7 24 -15
34 -8 11 -15 17 -15 14z"/>
<path d="M7920 8879 c0 -5 5 -7 10 -4 6 3 10 8 10 11 0 2 -4 4 -10 4 -5 0 -10
-5 -10 -11z"/>
<path d="M8836 8873 c-6 -14 -5 -15 5 -6 7 7 10 15 7 18 -3 3 -9 -2 -12 -12z"/>
<path d="M8871 8874 c0 -11 3 -14 6 -6 3 7 2 16 -1 19 -3 4 -6 -2 -5 -13z"/>
<path d="M7830 8449 c-12 -8 -9 -9 9 -4 14 5 21 3 17 -3 -3 -5 2 -9 11 -8 10
0 19 -9 22 -22 6 -23 6 -23 29 7 22 30 18 43 -6 19 -9 -9 -15 -10 -20 -2 -11
17 -45 25 -62 13z"/>
<path d="M7990 8421 c0 -7 5 -9 12 -5 7 5 8 3 3 -6 -4 -7 -2 -16 6 -21 9 -6
10 -9 2 -9 -7 0 -16 8 -22 18 -9 16 -11 16 -23 -1 -17 -23 -23 -87 -8 -87 6 0
8 10 4 25 -4 16 -2 25 6 25 6 0 8 -4 5 -10 -10 -16 5 -33 18 -22 7 6 50 22 97
38 104 34 117 44 60 46 -53 1 -83 5 -127 14 -22 4 -33 2 -33 -5z m5 -51 c4 -6
16 -8 28 -4 25 7 21 2 -9 -14 -16 -9 -22 -7 -32 9 -7 10 -8 19 -3 19 6 0 13
-5 16 -10z"/>
<path d="M7860 8405 c0 -6 4 -15 9 -20 5 -6 11 -23 14 -40 l4 -30 2 31 c0 16
-6 39 -14 50 -8 10 -15 14 -15 9z"/>
<path d="M7858 8343 c5 -21 7 -23 10 -9 2 10 0 22 -6 28 -6 6 -7 0 -4 -19z"/>
<path d="M8945 8359 c-4 -6 -5 -12 -2 -15 2 -3 7 2 10 11 7 17 1 20 -8 4z"/>
<path d="M7891 8294 c0 -11 3 -14 6 -6 3 7 2 16 -1 19 -3 4 -6 -2 -5 -13z"/>
<path d="M8128 8291 c-16 -10 -25 -21 -20 -26 4 -4 0 -6 -9 -3 -8 3 -26 0 -40
-8 -15 -8 -18 -14 -9 -14 21 -1 -18 -30 -39 -30 -14 0 -14 1 -1 10 13 9 13 10
0 10 -10 0 -19 -17 -28 -53 -15 -63 -15 -97 -2 -97 5 0 7 7 3 15 -3 9 0 35 7
58 8 31 17 43 32 44 19 2 19 1 3 -25 l-17 -27 25 25 c13 14 23 27 21 29 -4 4
14 17 84 62 17 12 32 27 32 35 0 18 -8 17 -42 -5z"/>
<path d="M8596 8288 c4 -13 7 -31 6 -40 -1 -15 2 -15 19 -5 20 12 25 27 10 27
-5 0 -13 9 -16 20 -3 11 -11 20 -16 20 -6 0 -7 -9 -3 -22z"/>
<path d="M8781 8171 c-12 -8 -12 -11 1 -25 15 -15 28 -12 28 6 0 5 -5 6 -12 2
-8 -5 -9 -2 -5 9 7 20 7 20 -12 8z"/>
<path d="M8410 8094 c0 -14 3 -14 15 -4 8 7 15 14 15 16 0 2 -7 4 -15 4 -8 0
-15 -7 -15 -16z"/>
<path d="M8690 8075 c-13 -14 -20 -25 -15 -25 7 0 45 39 45 47 0 7 -8 2 -30
-22z"/>
<path d="M8331 8014 c0 -11 3 -14 6 -6 3 7 2 16 -1 19 -3 4 -6 -2 -5 -13z"/>
<path d="M8351 7984 c0 -11 3 -14 6 -6 3 7 2 16 -1 19 -3 4 -6 -2 -5 -13z"/>
<path d="M9300 7981 c0 -6 4 -13 10 -16 6 -3 7 1 4 9 -7 18 -14 21 -14 7z"/>
<path d="M8361 7944 c0 -11 3 -14 6 -6 3 7 2 16 -1 19 -3 4 -6 -2 -5 -13z"/>
<path d="M8524 7908 l-29 -33 33 29 c30 28 37 36 29 36 -2 0 -16 -15 -33 -32z"/>
<path d="M8196 7872 c-6 -10 5 -21 34 -37 10 -5 8 0 -5 16 -11 13 -21 25 -21
27 -1 2 -5 -1 -8 -6z"/>
<path d="M8995 7740 c4 -6 11 -8 16 -5 14 9 11 15 -7 15 -8 0 -12 -5 -9 -10z"/>
<path d="M8756 7508 c3 -4 12 -8 20 -8 8 0 14 4 14 8 0 4 -9 8 -19 8 -11 0
-17 -4 -15 -8z"/>
<path d="M8661 7483 c-7 -8 -11 -16 -8 -19 2 -2 10 2 17 11 17 20 9 27 -9 8z"/>
<path d="M8567 7427 c2 -4 -6 -11 -19 -17 -13 -5 -34 -18 -47 -28 -20 -17 -21
-20 -7 -25 10 -4 15 -3 11 2 -3 5 20 24 50 41 30 17 55 33 55 35 0 1 -11 2
-24 1 -13 0 -22 -4 -19 -9z"/>
<path d="M8523 7355 c0 -8 4 -12 9 -9 5 3 6 10 3 15 -9 13 -12 11 -12 -6z"/>
<path d="M8430 7341 c-8 -6 -17 -8 -21 -5 -4 2 -9 -3 -13 -11 -7 -19 4 -19 32
1 12 8 27 12 34 8 7 -4 8 -3 4 4 -9 14 -16 15 -36 3z"/>
<path d="M3759 7123 c-13 -15 -12 -15 9 -4 23 12 28 21 13 21 -5 0 -15 -7 -22
-17z"/>
<path d="M3822 7074 c-48 -29 -51 -44 -5 -20 25 13 63 46 52 46 -2 0 -23 -12
-47 -26z"/>
<path d="M3622 7053 c-35 -19 -61 -37 -58 -40 6 -6 135 60 136 70 0 12 -13 7
-78 -30z"/>
<path d="M3478 6974 c-16 -8 -28 -19 -28 -25 0 -11 21 -1 55 25 25 20 8 20
-27 0z"/>
<path d="M9231 6851 c-19 -3 -36 -12 -39 -19 -3 -10 8 -12 50 -7 131 14 142
17 127 26 -15 10 -85 10 -138 0z"/>
<path d="M10777 6789 c7 -7 15 -10 18 -7 3 3 -2 9 -12 12 -14 6 -15 5 -6 -5z"/>
<path d="M8160 6670 c-12 -8 -11 -10 7 -10 12 0 25 5 28 10 8 13 -15 13 -35 0z"/>
<path d="M4000 5485 c-7 -9 -8 -15 -2 -15 5 0 12 7 16 15 3 8 4 15 2 15 -2 0
-9 -7 -16 -15z"/>
<path d="M3870 5305 c0 -8 2 -15 4 -15 2 0 6 7 10 15 3 8 1 15 -4 15 -6 0 -10
-7 -10 -15z"/>
<path d="M3716 5193 c-6 -14 -5 -15 5 -6 7 7 10 15 7 18 -3 3 -9 -2 -12 -12z"/>
<path d="M4818 5041 c-5 -35 -8 -78 -7 -95 0 -30 0 -30 10 -7 5 14 8 57 7 95
l-3 71 -7 -64z"/>
<path d="M5641 5083 c7 -12 15 -20 18 -17 3 2 -3 12 -13 22 -17 16 -18 16 -5
-5z"/>
<path d="M4740 4993 c-3 -23 -2 -39 3 -34 5 5 7 24 5 42 -3 33 -4 33 -8 -8z"/>
<path d="M5658 4985 c13 -25 52 -62 52 -48 0 5 -14 22 -31 39 -23 21 -29 23
-21 9z"/>
<path d="M5730 4913 c0 -13 29 -38 35 -31 3 3 -4 13 -15 23 -11 10 -20 13 -20
8z"/>
<path d="M4716 4818 c-5 -18 -36 -260 -36 -277 0 -38 13 8 30 115 11 66 22
131 25 147 4 26 -12 40 -19 15z"/>
<path d="M3313 4593 c-39 -49 -49 -68 -35 -59 13 8 76 96 68 96 -2 0 -17 -17
-33 -37z"/>
<path d="M3255 4594 c-9 -15 -12 -23 -6 -20 11 7 35 46 28 46 -3 0 -12 -12
-22 -26z"/>
<path d="M3101 4404 c-40 -47 -71 -87 -69 -89 2 -2 28 26 58 63 77 93 92 112
88 112 -3 0 -37 -39 -77 -86z"/>
<path d="M4646 4392 c-18 -80 -21 -121 -7 -106 14 14 39 151 31 165 -5 6 -15
-19 -24 -59z"/>
<path d="M2959 4233 c-32 -36 -53 -63 -47 -63 2 0 21 20 41 45 42 49 45 61 6
18z"/>
<path d="M7380 4030 c-9 -6 -10 -10 -3 -10 6 0 15 5 18 10 8 12 4 12 -15 0z"/>
<path d="M7418 4004 c-39 -21 -35 -28 5 -8 37 19 44 24 31 24 -5 -1 -21 -8
-36 -16z"/>
<path d="M7280 3985 c-14 -8 -20 -14 -14 -15 5 0 19 7 30 15 24 18 16 19 -16
0z"/>
<path d="M7192 3953 c-24 -8 -41 -17 -39 -19 4 -5 97 26 97 32 0 6 -11 4 -58
-13z"/>
<path d="M7068 3903 c7 -3 16 -2 19 1 4 3 -2 6 -13 5 -11 0 -14 -3 -6 -6z"/>
</g>
</svg>
